<!DOCTYPE svg PUBLIC "-//W3C//DTD SVG 1.1//EN" "http://www.w3.org/Graphics/SVG/1.1/DTD/svg11.dtd">
<!-- Uploaded to: SVG Repo, www.svgrepo.com, Transformed by: SVG Repo Mixer Tools -->
<svg fill="#000000" height="800px" width="800px" version="1.1" id="Layer_1" xmlns="http://www.w3.org/2000/svg" xmlns:xlink="http://www.w3.org/1999/xlink" viewBox="0 0 512 512" xml:space="preserve" stroke="#000000">
<g id="SVGRepo_bgCarrier" stroke-width="0"/>
<g id="SVGRepo_tracerCarrier" stroke-linecap="round" stroke-linejoin="round"/>
<g id="SVGRepo_iconCarrier"> <g> <g> <circle cx="324.543" cy="93.413" r="8.17"/> </g> </g> <g> <g> <circle cx="357.224" cy="115.2" r="8.17"/> </g> </g> <g> <g> <circle cx="154.777" cy="418.587" r="8.17"/> </g> </g> <g> <g> <path d="M483.782,342.22c-1.63,4.208,0.462,8.94,4.67,10.569c0.97,0.376,1.966,0.553,2.948,0.553c3.276,0,6.367-1.984,7.621-5.222 C507.633,325.874,512,302.393,512,278.332v-44.664c0-106.62-86.742-193.362-193.362-193.362H149.243V8.17 c0-3.144-1.804-6.009-4.638-7.367c-2.835-1.359-6.196-0.971-8.648,0.997L3.054,108.557C1.123,110.109,0,112.451,0,114.928 s1.123,4.819,3.053,6.37l21.791,17.504C8.575,167.658,0,200.299,0,233.668v44.664c0,106.62,86.742,193.362,193.362,193.362 h169.396v32.136c0,3.144,1.804,6.009,4.638,7.367c1.124,0.539,2.33,0.803,3.531,0.803c1.827,0,3.638-0.613,5.118-1.801 l132.902-106.757c1.93-1.55,3.053-3.892,3.053-6.37c0-2.477-1.123-4.819-3.053-6.369L376.044,283.946 c-2.451-1.969-5.814-2.357-8.648-0.998c-2.834,1.358-4.638,4.223-4.638,7.367v32.136H193.362 c-24.328,0-44.119-19.792-44.119-44.119v-14.729c0-4.513-3.658-8.17-8.17-8.17c-4.512,0-8.17,3.657-8.17,8.17v14.729 c0,33.338,27.122,60.46,60.46,60.46h177.566c4.512,0,8.17-3.657,8.17-8.17v-23.263l111.686,89.714l-111.686,89.714v-23.263 c0-4.513-3.658-8.17-8.17-8.17H193.362c-97.61,0-177.021-79.412-177.021-177.021v-44.664c0-29.645,7.404-58.648,21.446-84.471 l98.17,78.858c2.452,1.971,5.814,2.36,8.648,0.998c2.835-1.358,4.638-4.223,4.638-7.367v-32.136h169.396 c24.328,0,44.119,19.792,44.119,44.119v14.729c0,4.513,3.658,8.17,8.17,8.17s8.17-3.657,8.17-8.17v-14.729 c0-33.338-27.122-60.46-60.46-60.46H141.074c-4.512,0-8.17,3.657-8.17,8.17v23.263L21.217,114.928l111.686-89.715v23.264 c0,4.513,3.658,8.17,8.17,8.17h177.566c97.61,0,177.021,79.411,177.021,177.021v44.664 C495.66,300.367,491.664,321.863,483.782,342.22z"/> </g> </g> </g>
</svg>